<svg xmlns="http://www.w3.org/2000/svg" width="1440" height="1080" viewBox="0 0 1440 1080"><rect width="100%" height="100%" fill="#DDDDDD"/><path fill="#999999" d="M342.16 580.885h19.76v14.06h-60.8v-14.06h22.27v-64.07q0-3.8.23-7.83l-15.81 13.23q-1.37 1.06-2.7 1.33-1.33.26-2.5.04-1.18-.23-2.09-.8-.92-.57-1.37-1.26l-5.93-8.13 33.52-28.5h15.42v95.99Zm49.94-27.36h33.44v-35.95q0-5.09.68-11.25l-34.12 47.2Zm49.78 0h13.83v10.87q0 1.52-.99 2.62t-2.81 1.1h-10.03v26.83h-16.34v-26.83h-46.36q-1.9 0-3.35-1.18-1.44-1.17-1.82-2.92l-1.98-9.5 52.06-69.54h17.79v68.55Zm38.38 0h33.44v-35.95q0-5.09.68-11.25l-34.12 47.2Zm49.78 0h13.83v10.87q0 1.52-.99 2.62t-2.81 1.1h-10.03v26.83H513.7v-26.83h-46.36q-1.9 0-3.35-1.18-1.44-1.17-1.82-2.92l-1.98-9.5 52.06-69.54h17.79v68.55Zm102.06-13.53q0 14.37-3.07 24.97-3.08 10.6-8.52 17.52-5.43 6.91-12.84 10.29-7.41 3.39-16 3.39t-15.92-3.39q-7.33-3.38-12.73-10.29-5.4-6.92-8.44-17.52-3.04-10.6-3.04-24.97 0-14.44 3.04-25 3.04-10.57 8.44-17.48 5.4-6.92 12.73-10.3 7.33-3.38 15.92-3.38t16 3.38q7.41 3.38 12.84 10.3 5.44 6.91 8.52 17.48 3.07 10.56 3.07 25Zm-19.38 0q0-11.93-1.74-19.76-1.75-7.83-4.68-12.46-2.92-4.64-6.72-6.5-3.8-1.86-7.91-1.86-4.03 0-7.79 1.86t-6.65 6.5q-2.89 4.63-4.6 12.46-1.71 7.83-1.71 19.76 0 11.93 1.71 19.76 1.71 7.83 4.6 12.47 2.89 4.63 6.65 6.49 3.76 1.87 7.79 1.87 4.11 0 7.91-1.87 3.8-1.86 6.72-6.49 2.93-4.64 4.68-12.47 1.74-7.83 1.74-19.76Zm140.07 29.79-9.95 9.81-25.77-25.77-25.99 25.92-9.96-9.8 26-26.07-24.78-24.78 9.88-9.88 24.78 24.78 24.62-24.63 10.03 9.88-24.7 24.7 25.84 25.84Zm104.05 11.1h19.76v14.06h-60.8v-14.06h22.26v-64.07q0-3.8.23-7.83l-15.81 13.23q-1.36 1.06-2.69 1.33-1.33.26-2.51.04-1.18-.23-2.09-.8-.91-.57-1.37-1.26l-5.93-8.13 33.52-28.5h15.43v95.99Zm113.62-40.89q0 14.37-3.08 24.97t-8.51 17.52q-5.44 6.91-12.85 10.29-7.41 3.39-16 3.39-8.58 0-15.92-3.39-7.33-3.38-12.73-10.29-5.39-6.92-8.43-17.52t-3.04-24.97q0-14.44 3.04-25 3.04-10.57 8.43-17.48 5.4-6.92 12.73-10.3 7.34-3.38 15.92-3.38 8.59 0 16 3.38t12.85 10.3q5.43 6.91 8.51 17.48 3.08 10.56 3.08 25Zm-19.38 0q0-11.93-1.75-19.76-1.75-7.83-4.68-12.46-2.92-4.64-6.72-6.5-3.8-1.86-7.91-1.86-4.02 0-7.79 1.86-3.76 1.86-6.65 6.5-2.88 4.63-4.59 12.46-1.71 7.83-1.71 19.76 0 11.93 1.71 19.76 1.71 7.83 4.59 12.47 2.89 4.63 6.65 6.49 3.77 1.87 7.79 1.87 4.11 0 7.91-1.87 3.8-1.86 6.72-6.49 2.93-4.64 4.68-12.47 1.75-7.83 1.75-19.76Zm67.26 41.5q4.63 0 8.13-1.33 3.49-1.33 5.89-3.69 2.39-2.35 3.61-5.62 1.21-3.27 1.21-7.07 0-9.04-5.01-13.68-5.02-4.64-13.83-4.64-8.82 0-13.84 4.64-5.01 4.64-5.01 13.68 0 3.8 1.21 7.07 1.22 3.27 3.61 5.62 2.4 2.36 5.89 3.69 3.5 1.33 8.14 1.33Zm0-83.53q-4.18 0-7.22 1.3-3.04 1.29-5.06 3.45-2.01 2.17-2.96 4.98-.95 2.81-.95 5.93 0 3.27.8 6.35.79 3.07 2.69 5.47 1.9 2.39 5.02 3.84 3.12 1.44 7.68 1.44t7.67-1.44q3.12-1.45 5.02-3.84 1.9-2.4 2.7-5.47.79-3.08.79-6.35 0-3.12-.98-5.93-.99-2.81-2.97-4.98-1.97-2.16-5.01-3.45-3.04-1.3-7.22-1.3Zm18.54 39.68q10.03 3.26 14.82 9.99 4.79 6.73 4.79 16.45 0 7.3-2.78 13.23-2.77 5.93-7.79 10.11-5.01 4.18-12.04 6.46-7.03 2.28-15.54 2.28-8.52 0-15.55-2.28-7.03-2.28-12.04-6.46-5.02-4.18-7.79-10.11-2.78-5.93-2.78-13.23 0-9.72 4.79-16.45 4.79-6.73 14.82-9.99-7.98-3.35-11.97-9.5-3.99-6.16-3.99-14.82 0-6.24 2.55-11.63 2.54-5.4 7.1-9.39t10.91-6.23q6.35-2.24 13.95-2.24t13.94 2.24q6.35 2.24 10.91 6.23 4.56 3.99 7.1 9.39 2.55 5.39 2.55 11.63 0 8.66-3.99 14.82-3.99 6.15-11.97 9.5Zm109.9 2.35q0 14.37-3.08 24.97t-8.51 17.52q-5.44 6.91-12.85 10.29-7.41 3.39-16 3.39-8.58 0-15.92-3.39-7.33-3.38-12.73-10.29-5.39-6.92-8.43-17.52t-3.04-24.97q0-14.44 3.04-25 3.04-10.57 8.43-17.48 5.4-6.92 12.73-10.3 7.34-3.38 15.92-3.38 8.59 0 16 3.38t12.85 10.3q5.43 6.91 8.51 17.48 3.08 10.56 3.08 25Zm-19.38 0q0-11.93-1.75-19.76-1.75-7.83-4.68-12.46-2.92-4.64-6.72-6.5-3.8-1.86-7.91-1.86-4.02 0-7.79 1.86-3.76 1.86-6.65 6.5-2.88 4.63-4.59 12.46-1.71 7.83-1.71 19.76 0 11.93 1.71 19.76 1.71 7.83 4.59 12.47 2.89 4.63 6.65 6.49 3.77 1.87 7.79 1.87 4.11 0 7.91-1.87 3.8-1.86 6.72-6.49 2.93-4.64 4.68-12.47 1.75-7.83 1.75-19.76Z"/></svg>